<?xml version="1.0" standalone="no"?>
<!DOCTYPE svg PUBLIC "-//W3C//DTD SVG 20010904//EN"
 "http://www.w3.org/TR/2001/REC-SVG-20010904/DTD/svg10.dtd">
<svg version="1.0" xmlns="http://www.w3.org/2000/svg"
 width="1102.000000pt" height="1025.000000pt" viewBox="0 0 1102.000000 1025.000000"
 preserveAspectRatio="xMidYMid meet">

<g transform="translate(0.000000,1025.000000) scale(0.100000,-0.100000)"
fill="#000000" stroke="none">
<path d="M1705 9556 c-16 -7 -39 -23 -50 -36 -19 -21 -20 -38 -23 -409 -2
-416 -2 -415 51 -455 27 -20 44 -21 285 -26 l257 -5 78 -37 c128 -62 216 -167
252 -303 12 -48 15 -130 15 -436 l0 -378 -52 -19 c-202 -76 -547 -240 -748
-355 -232 -133 -464 -294 -473 -328 -13 -51 5 -66 205 -163 283 -138 670 -286
986 -376 l82 -24 0 -78 c0 -43 -3 -78 -7 -78 -35 0 -506 155 -708 233 -205 79
-514 225 -682 322 l-63 36 -148 -148 c-82 -81 -179 -186 -216 -233 -469 -589
-585 -1256 -329 -1885 78 -194 180 -363 331 -555 89 -113 359 -382 400 -399
27 -11 41 -6 218 83 321 161 622 280 987 391 100 31 190 58 200 61 15 5 17 -3
17 -75 0 -67 -3 -80 -17 -85 -403 -116 -745 -244 -1050 -393 -194 -94 -198
-117 -41 -226 209 -145 525 -319 800 -441 187 -82 460 -186 491 -186 20 0 30
-15 72 -107 392 -879 1208 -1527 2139 -1697 226 -42 320 -50 586 -49 284 0
434 17 669 74 831 203 1524 802 1842 1593 26 65 51 122 56 126 4 4 77 30 160
59 478 162 973 408 1316 653 130 93 130 93 -38 180 -449 231 -1086 440 -1738
572 -186 38 -222 42 -231 27 -3 -4 -22 -62 -42 -127 -77 -254 -219 -570 -355
-789 -205 -329 -491 -625 -773 -799 -76 -47 -96 -64 -96 -82 0 -13 8 -27 18
-33 22 -12 366 27 649 74 117 19 216 35 219 35 15 0 -72 -105 -157 -190 -200
-202 -459 -335 -748 -385 -113 -20 -416 -20 -539 0 -267 43 -522 171 -723 363
-78 73 -219 244 -219 263 0 4 48 -13 106 -38 116 -49 291 -97 397 -108 119
-13 107 -125 107 1000 0 825 -2 974 -14 991 -14 18 -26 19 -188 16 -146 -2
-488 -16 -593 -25 l-30 -2 -3 76 -3 76 83 6 c46 3 223 11 393 18 230 9 316 15
333 26 l22 13 0 638 c0 535 -2 641 -14 658 -13 17 -29 19 -128 21 -164 4 -563
22 -630 30 l-58 6 0 75 0 75 83 -6 c45 -3 220 -12 389 -18 234 -10 313 -10
332 -1 l26 12 0 1040 0 1040 -47 -6 c-261 -31 -468 -101 -687 -233 -46 -28
-87 -51 -90 -51 -11 0 -6 554 5 616 31 169 166 316 333 360 36 10 117 14 276
14 254 0 280 6 312 70 16 31 18 73 18 400 0 409 -1 418 -70 452 -33 17 -144
18 -1890 18 -1517 -1 -1860 -3 -1885 -14z m3595 -446 l0 -210 -472 0 c-507 -1
-557 -4 -696 -53 -209 -73 -398 -240 -502 -444 -22 -43 -40 -83 -40 -90 0 -29
-19 -10 -39 40 -76 187 -246 363 -442 456 -174 84 -180 85 -736 89 l-493 3 0
210 0 209 1710 0 1710 0 0 -210z m-2394 -330 c285 -68 506 -280 596 -572 l23
-73 5 -2560 c5 -2368 7 -2567 23 -2659 87 -496 296 -899 638 -1232 389 -377
886 -588 1438 -611 870 -35 1657 423 2042 1189 53 105 62 118 91 126 18 5 34
5 36 1 2 -4 -20 -53 -48 -109 -321 -640 -917 -1108 -1620 -1274 -205 -49 -317
-60 -585 -60 -263 0 -355 8 -565 50 -504 101 -963 343 -1334 704 -392 380
-654 847 -765 1362 -59 275 -55 65 -61 2763 -5 2310 -7 2474 -23 2527 -53 176
-142 302 -281 399 l-69 49 189 0 c153 0 205 -4 270 -20z m1800 7 c-172 -109
-289 -269 -333 -454 -17 -75 -18 -198 -18 -2743 0 -2143 3 -2682 13 -2754 103
-700 601 -1233 1298 -1388 88 -19 129 -22 364 -22 239 -1 275 2 367 22 482
106 858 381 1103 806 34 60 53 82 73 87 18 5 27 3 27 -5 0 -18 -117 -215 -190
-319 -85 -121 -336 -372 -457 -457 -302 -212 -596 -327 -953 -375 -141 -20
-418 -19 -572 1 -445 58 -865 264 -1185 583 -306 305 -497 666 -586 1105 l-22
111 -3 2560 c-2 2542 -2 2560 18 2640 73 290 301 519 590 594 63 17 109 20
280 20 162 0 201 -3 186 -12z"/>
<path d="M6573 9555 c-18 -8 -42 -29 -53 -47 -19 -32 -20 -50 -20 -408 0 -354
1 -377 20 -407 34 -56 42 -58 331 -63 l265 -5 78 -38 c132 -66 218 -172 251
-308 18 -76 22 -509 5 -509 -6 0 -50 9 -99 20 -208 46 -675 118 -877 136 -81
6 -82 6 -100 -21 -22 -34 -14 -49 47 -89 85 -56 225 -164 302 -233 359 -322
668 -839 828 -1383 23 -80 51 -154 61 -165 18 -20 19 -20 186 14 662 133 1302
343 1775 583 196 99 202 116 80 206 -320 236 -787 479 -1251 652 l-143 53 3
371 3 371 36 75 c62 128 149 206 277 249 55 19 85 21 294 21 263 0 288 6 320
70 16 31 18 73 18 400 0 409 -1 414 -71 452 -32 17 -92 18 -1284 18 -1051 -1
-1255 -3 -1282 -15z m2387 -444 l0 -209 -282 -4 c-275 -4 -285 -5 -363 -31
-181 -60 -326 -182 -414 -349 l-30 -57 -42 77 c-64 117 -180 227 -300 286
-140 67 -200 76 -514 76 l-265 0 0 210 0 210 1105 0 1105 0 0 -209z m-1480
-371 c155 -75 281 -230 324 -397 13 -49 16 -121 16 -363 l0 -302 -32 7 c-83
18 -75 -11 -81 312 -5 322 -9 351 -76 488 -50 100 -117 184 -199 247 -35 26
-57 48 -50 48 8 0 52 -18 98 -40z m803 -9 c-96 -70 -196 -213 -240 -346 -27
-79 -27 -83 -31 -421 l-4 -341 -41 12 -42 12 0 339 0 339 26 67 c39 101 87
173 159 241 62 59 168 126 199 127 8 0 -4 -13 -26 -29z"/>
<path d="M5590 6891 c0 -921 2 -1040 15 -1051 12 -10 65 -12 243 -6 438 13
872 48 1266 101 318 43 337 47 332 64 -43 160 -76 268 -112 364 -278 748 -758
1281 -1333 1481 -107 37 -253 70 -353 79 l-58 6 0 -1038z"/>
<path d="M9655 6506 c-234 -119 -376 -181 -650 -282 -311 -114 -759 -239
-1125 -314 -85 -17 -165 -35 -178 -41 -13 -5 -29 -24 -37 -43 -13 -29 -12 -45
0 -117 37 -208 49 -374 49 -664 1 -306 -7 -412 -51 -678 -28 -171 -26 -192 19
-220 13 -8 104 -32 203 -52 657 -134 1249 -332 1755 -585 108 -54 192 -90 210
-90 24 0 50 18 128 88 666 606 907 1362 666 2091 -96 290 -283 583 -544 855
-117 121 -173 166 -204 165 -12 -1 -120 -51 -241 -113z"/>
<path d="M7240 5799 c-393 -60 -910 -104 -1366 -117 -190 -5 -255 -10 -267
-21 -16 -12 -17 -71 -17 -657 l0 -644 23 -13 c16 -11 104 -17 342 -26 465 -17
913 -56 1310 -116 101 -15 167 -20 181 -15 28 11 39 45 63 200 41 256 46 331
46 655 0 250 -4 350 -18 459 -37 280 -45 308 -92 318 -11 3 -103 -8 -205 -23z"/>
<path d="M5620 4167 l-25 -13 -3 -978 c-2 -1131 -13 -1023 100 -1011 37 3 113
17 168 30 614 149 1145 683 1447 1455 106 269 122 347 81 374 -55 34 -766 113
-1228 135 -404 20 -513 22 -540 8z"/>
</g>
</svg>
